# xmcd CD database file
#
# Track frame offsets:
#	150
#	51092
#	116727
#	162672
#
# Disc length: 2772 seconds
#
# Revision: 0
# Processed by: cddbd v1.5.1PL0 Copyright (c) Steve Scherf et al.
# Submitted via: CDex 1.50
#
DISCID=330ad204
DTITLE=Varios - La gozadera Mix 2
DYEAR=2000
DGENRE=Merengue
TTITLE0=Varios 1
TTITLE1=VArios 2
TTITLE2=Varios 3
TTITLE3=Varios 4
EXTD=YEAR: 2000
EXTT0=
EXTT1=
EXTT2=
EXTT3=
PLAYORDER=
